<svg version="1.1" id="Layer_1" xmlns="http://www.w3.org/2000/svg" xmlns:xlink="http://www.w3.org/1999/xlink" x="0px" y="0px"
	 width="100%" viewBox="0 0 634 394" enable-background="new 0 0 634 394" xml:space="preserve">
<path fill="#000000" opacity="1.000000" stroke="none" 
	d="
M602.000000,395.000000 
	C401.381989,395.000000 201.263947,395.000000 1.072963,395.000000 
	C1.072963,263.747253 1.072963,132.494461 1.072963,1.120836 
	C212.333298,1.120836 423.666626,1.120836 634.995789,1.120836 
	C634.995789,132.402756 634.995789,263.701385 634.993652,395.000000 
	C624.161072,395.000000 613.330505,395.000000 602.000000,395.000000 
M405.345551,204.065216 
	C405.345551,204.065216 404.976624,204.197998 404.122559,204.057053 
	C400.149841,203.926483 396.069763,204.327301 392.227417,203.551239 
	C384.935303,202.078445 380.305389,203.950211 377.103424,210.448425 
	C372.584778,219.618668 377.639526,230.579605 386.733704,232.321930 
	C392.595612,233.445023 398.190369,229.879013 404.571838,231.928314 
	C405.035858,231.653427 405.499878,231.378540 406.794556,230.748169 
	C406.886719,222.367599 407.001404,213.987076 407.012939,205.606384 
	C407.013580,205.122101 406.175659,204.636673 405.345551,204.065216 
M452.305664,193.066406 
	C452.305664,193.066406 451.976013,193.197113 451.227142,193.073181 
	C450.473145,193.127213 449.719177,193.181244 448.216492,193.101151 
	C447.178070,193.416107 446.139679,193.731049 445.009094,194.705276 
	C445.060150,195.144745 445.111206,195.584198 445.013519,196.946320 
	C445.067810,208.189468 445.122101,219.432632 445.134186,231.584366 
	C448.007019,231.784241 450.879822,231.984100 454.069153,232.205994 
	C454.069153,219.398315 454.089783,207.198517 454.008606,194.999405 
	C454.004517,194.386383 453.119720,193.779236 452.305664,193.066406 
M181.256912,262.990234 
	C193.117065,262.972168 199.009567,250.932404 196.303040,241.630219 
	C194.472321,235.338074 192.907425,228.968597 191.250610,222.735260 
	C197.951187,220.438629 202.086197,216.721420 203.788925,211.103210 
	C204.908463,207.409210 204.732544,203.335510 205.276215,199.451385 
	C206.448608,191.075562 208.145157,182.746475 208.806107,174.333740 
	C209.389481,166.908295 204.773468,163.455536 197.518387,165.110718 
	C196.628418,165.313782 196.005035,166.685226 195.258118,167.515228 
	C196.426865,168.357117 197.597427,169.870056 198.763885,169.866882 
	C200.145309,169.863144 201.523178,168.552109 203.624893,167.417892 
	C204.164978,169.883041 205.106277,171.882187 204.932846,173.779449 
	C204.116348,182.712387 203.912308,191.861725 201.629684,200.438858 
	C200.302994,205.423935 200.738205,211.454742 195.340469,215.510330 
	C190.182373,219.385864 182.966003,218.242310 181.383575,211.666779 
	C179.263489,202.856903 177.803146,193.889816 175.944489,185.014328 
	C175.523514,183.004059 174.629318,181.092911 173.952957,179.136124 
	C173.444016,179.231140 172.935089,179.326157 172.426163,179.421173 
	C172.426163,182.585861 172.029358,185.812515 172.511902,188.901825 
	C173.410080,194.652039 175.391907,200.273880 175.879776,206.037430 
	C176.563217,214.111435 179.926941,219.512344 187.272186,222.486511 
	C187.332489,223.734375 187.182663,224.861176 187.469147,225.863205 
	C189.110245,231.603241 190.926636,237.293442 192.544586,243.039703 
	C194.198395,248.913254 189.682892,256.504150 183.987976,257.991119 
	C177.070984,259.797180 170.634872,258.386658 165.106033,254.366745 
	C159.656860,250.404770 153.322632,246.884109 153.547699,238.334564 
	C153.638855,234.872238 148.044632,231.459991 144.904053,232.055695 
	C139.911011,233.002777 137.509949,236.152390 138.040649,241.058853 
	C138.791702,248.002579 144.495682,251.015198 151.555359,247.981552 
	C159.195267,256.573822 167.923080,263.388794 181.256912,262.990234 
M320.546539,229.984512 
	C329.343475,235.008575 338.869476,232.936478 342.679260,225.009949 
	C339.612823,223.667953 337.298309,221.267929 333.086975,223.721298 
	C328.631989,226.316650 326.640869,225.179474 323.396332,220.987000 
	C329.479156,220.987000 335.234039,221.151245 340.966675,220.867203 
	C342.336456,220.799332 344.774963,219.203308 344.750458,218.367966 
	C344.673126,215.730408 344.165924,212.842178 342.908020,210.555359 
	C339.959351,205.194916 332.987793,202.124237 327.236053,203.053253 
	C319.607574,204.285370 317.159760,206.650238 315.201538,214.679977 
	C313.964172,219.753784 316.326813,227.058640 320.546539,229.984512 
M264.058990,206.498520 
	C262.733612,209.023865 260.844757,211.411987 260.190033,214.100647 
	C258.328003,221.746948 261.755981,230.079254 267.346436,230.800781 
	C274.648682,231.743225 282.085510,231.642593 289.968689,232.014526 
	C289.968689,227.062546 289.968689,222.620255 289.968689,218.177963 
	C289.968689,213.588989 289.968689,209.000000 289.968689,203.786087 
	C285.412903,203.786087 281.308289,204.489304 277.575134,203.611984 
	C272.666412,202.458374 268.621277,203.452026 264.058990,206.498520 
M438.947998,205.844269 
	C436.181671,205.051376 433.415344,204.258469 430.004578,203.280869 
	C430.004578,209.512115 429.865540,214.309937 430.049042,219.095398 
	C430.193298,222.857407 427.944397,224.768387 424.906525,224.714294 
	C423.591095,224.690872 421.768616,221.917023 421.187653,220.073776 
	C420.518433,217.950592 420.947998,215.475220 420.934570,213.152588 
	C420.916168,209.972992 420.929962,206.793213 420.929962,203.549606 
	C417.301270,203.872757 414.793854,204.096039 412.020874,204.342987 
	C412.020874,210.891876 411.900055,217.186295 412.058929,223.473648 
	C412.187042,228.544678 417.533844,233.271378 422.700104,232.909683 
	C427.942535,232.542633 433.164398,231.882111 438.958008,231.292862 
	C438.958008,223.304092 438.958008,215.046097 438.947998,205.844269 
M488.330658,205.901627 
	C484.570770,205.047287 480.810883,204.192932 477.050995,203.338593 
	C476.854980,203.815262 476.658966,204.291946 476.462921,204.768631 
	C479.678986,209.180466 482.895050,213.592300 486.099915,217.988770 
	C482.879089,222.158279 479.830994,226.104156 475.774597,231.355301 
	C480.618347,231.690704 484.060120,231.929031 486.920837,232.127121 
	C488.929901,229.417831 490.557220,227.223297 492.329346,224.833511 
	C496.185791,232.436539 497.864441,233.149902 507.159393,231.222610 
	C504.421082,227.243164 501.616058,223.504578 499.255859,219.503586 
	C498.652130,218.480087 498.965485,216.292084 499.700958,215.215103 
	C502.253967,211.476593 505.178009,207.991440 508.248108,204.040298 
	C503.949921,204.040298 500.683044,203.232895 498.168457,204.262589 
	C495.543579,205.337433 493.643219,208.181549 491.312012,210.358749 
	C490.655731,209.310669 489.762268,207.883835 488.330658,205.901627 
M256.284515,225.107040 
	C254.017853,223.533630 251.751175,221.960205 249.484512,220.386780 
	C249.425644,221.064285 249.366776,221.741806 249.307907,222.419312 
	C246.382126,222.957184 243.258591,224.352692 240.598297,223.739243 
	C238.744446,223.311752 236.615845,220.264938 236.298294,218.136322 
	C236.021469,216.280548 237.614426,213.294693 239.285706,212.235977 
	C240.997635,211.151489 245.184479,210.829361 245.908615,211.854416 
	C249.807755,217.374008 253.025650,213.904526 256.558105,211.920288 
	C253.470901,204.542511 246.906357,201.868912 237.510300,204.027039 
	C228.906891,206.003128 224.199951,219.682938 229.987045,226.436142 
	C236.933289,234.542007 248.632965,235.880692 256.284515,225.107040 
M356.033447,208.242432 
	C354.420532,201.285263 349.199646,204.858734 344.341766,203.931015 
	C349.627197,214.295517 354.453552,223.759781 359.839722,234.321854 
	C365.442963,223.619370 370.372589,214.203491 375.302216,204.787598 
	C374.946075,204.293701 374.589905,203.799789 374.233765,203.305893 
	C371.033295,204.159073 367.190887,204.202560 364.810242,206.089874 
	C362.358490,208.033569 361.331177,211.774078 359.536560,214.986252 
	C358.351440,212.664444 357.393097,210.786865 356.033447,208.242432 
M461.995300,219.546524 
	C462.256897,222.777603 461.676697,226.402618 462.964081,229.153687 
	C465.286438,234.116531 470.148376,233.228455 474.806519,232.649719 
	C474.806519,230.128189 474.806519,227.862869 474.806519,225.621933 
	C469.387573,224.238968 468.900269,222.532394 470.405670,210.364197 
	C471.876770,210.062958 473.389221,209.753250 474.797058,209.464981 
	C475.301117,205.523132 475.538177,202.088699 469.915833,202.967804 
	C469.915833,200.464645 469.915833,198.529205 469.915833,196.358154 
	C466.849945,196.358154 464.137482,196.358154 462.709503,196.358154 
	C460.893646,199.363861 459.171722,201.441696 458.352600,203.829300 
	C457.762360,205.549759 457.810883,209.112228 458.541901,209.400589 
	C463.403198,211.318161 461.581604,215.311783 461.995300,219.546524 
M305.045898,217.239883 
	C306.338287,215.673523 307.323669,213.428314 308.984680,212.677216 
	C312.857025,210.926147 314.739807,208.581375 313.632294,204.444626 
	C307.840118,204.444626 302.100861,204.444626 296.377014,204.444626 
	C296.377014,213.750702 296.377014,222.791962 296.377014,231.807266 
	C305.008575,232.226776 305.007629,232.226776 305.003723,224.090607 
	C305.002777,222.095444 305.010071,220.100266 305.045898,217.239883 
M175.661469,165.787079 
	C172.040558,167.150848 170.997269,169.366577 173.310318,173.257050 
	C175.001251,171.227646 176.394318,169.555725 177.946259,167.693130 
	C178.782516,168.426331 179.326202,169.299286 179.986267,169.398560 
	C181.326614,169.600159 182.807480,169.624557 184.068405,169.218658 
	C184.562256,169.059677 185.068619,166.963806 184.798737,166.757370 
	C183.748825,165.954269 182.432190,165.274017 181.134720,165.078049 
	C179.542862,164.837616 177.870834,165.127823 175.661469,165.787079 
z"/>
<path fill="#ED8381" opacity="1.000000" stroke="none" 
	d="
M180.807373,262.988159 
	C167.923080,263.388794 159.195267,256.573822 151.555359,247.981552 
	C144.495682,251.015198 138.791702,248.002579 138.040649,241.058853 
	C137.509949,236.152390 139.911011,233.002777 144.904053,232.055695 
	C148.044632,231.459991 153.638855,234.872238 153.547699,238.334564 
	C153.322632,246.884109 159.656860,250.404770 165.106033,254.366745 
	C170.634872,258.386658 177.070984,259.797180 183.987976,257.991119 
	C189.682892,256.504150 194.198395,248.913254 192.544586,243.039703 
	C190.926636,237.293442 189.110245,231.603241 187.469147,225.863205 
	C187.182663,224.861176 187.332489,223.734375 187.272186,222.486511 
	C179.926941,219.512344 176.563217,214.111435 175.879776,206.037430 
	C175.391907,200.273880 173.410080,194.652039 172.511902,188.901825 
	C172.029358,185.812515 172.426163,182.585861 172.426163,179.421173 
	C172.935089,179.326157 173.444016,179.231140 173.952957,179.136124 
	C174.629318,181.092911 175.523514,183.004059 175.944489,185.014328 
	C177.803146,193.889816 179.263489,202.856903 181.383575,211.666779 
	C182.966003,218.242310 190.182373,219.385864 195.340469,215.510330 
	C200.738205,211.454742 200.302994,205.423935 201.629684,200.438858 
	C203.912308,191.861725 204.116348,182.712387 204.932846,173.779449 
	C205.106277,171.882187 204.164978,169.883041 203.624893,167.417892 
	C201.523178,168.552109 200.145309,169.863144 198.763885,169.866882 
	C197.597427,169.870056 196.426865,168.357117 195.258118,167.515228 
	C196.005035,166.685226 196.628418,165.313782 197.518387,165.110718 
	C204.773468,163.455536 209.389481,166.908295 208.806107,174.333740 
	C208.145157,182.746475 206.448608,191.075562 205.276215,199.451385 
	C204.732544,203.335510 204.908463,207.409210 203.788925,211.103210 
	C202.086197,216.721420 197.951187,220.438629 191.250610,222.735260 
	C192.907425,228.968597 194.472321,235.338074 196.303040,241.630219 
	C199.009567,250.932404 193.117065,262.972168 180.807373,262.988159 
z"/>
<path fill="#DD5165" opacity="1.000000" stroke="none" 
	d="
M320.262482,229.716888 
	C316.326813,227.058640 313.964172,219.753784 315.201538,214.679977 
	C317.159760,206.650238 319.607574,204.285370 327.236053,203.053253 
	C332.987793,202.124237 339.959351,205.194916 342.908020,210.555359 
	C344.165924,212.842178 344.673126,215.730408 344.750458,218.367966 
	C344.774963,219.203308 342.336456,220.799332 340.966675,220.867203 
	C335.234039,221.151245 329.479156,220.987000 323.396332,220.987000 
	C326.640869,225.179474 328.631989,226.316650 333.086975,223.721298 
	C337.298309,221.267929 339.612823,223.667953 342.679260,225.009949 
	C338.869476,232.936478 329.343475,235.008575 320.262482,229.716888 
z"/>
<path fill="#DF4F63" opacity="1.000000" stroke="none" 
	d="
M264.337433,206.230453 
	C268.621277,203.452026 272.666412,202.458374 277.575134,203.611984 
	C281.308289,204.489304 285.412903,203.786087 289.968689,203.786087 
	C289.968689,209.000000 289.968689,213.588989 289.968689,218.177963 
	C289.968689,222.620255 289.968689,227.062546 289.968689,232.014526 
	C282.085510,231.642593 274.648682,231.743225 267.346436,230.800781 
	C261.755981,230.079254 258.328003,221.746948 260.190033,214.100647 
	C260.844757,211.411987 262.733612,209.023865 264.337433,206.230453 
M273.052704,224.583664 
	C274.605469,224.390762 276.864746,224.764893 277.567261,223.889587 
	C279.136993,221.933716 280.404327,219.454788 280.920868,217.004669 
	C281.571869,213.917007 279.860596,211.791534 276.647278,210.984543 
	C273.972565,210.312805 271.982513,210.496811 270.295013,213.236069 
	C267.572113,217.656036 267.934418,220.502472 273.052704,224.583664 
z"/>
<path fill="#DF4F63" opacity="1.000000" stroke="none" 
	d="
M403.991943,231.809555 
	C398.190369,229.879013 392.595612,233.445023 386.733704,232.321930 
	C377.639526,230.579605 372.584778,219.618668 377.103424,210.448425 
	C380.305389,203.950211 384.935303,202.078445 392.227417,203.551239 
	C396.069763,204.327301 400.149841,203.926483 404.554932,204.583420 
	C404.655518,214.009705 404.323761,222.909637 403.991943,231.809555 
M385.031372,216.763794 
	C385.029877,220.044159 384.399231,223.653992 389.360901,224.030304 
	C394.075653,224.387939 397.271851,222.463989 397.982147,218.696533 
	C398.486694,216.020432 394.711639,210.511719 391.659119,210.459030 
	C388.335358,210.401672 385.488434,211.976501 385.031372,216.763794 
z"/>
<path fill="#DF4F63" opacity="1.000000" stroke="none" 
	d="
M438.953003,206.316177 
	C438.958008,215.046097 438.958008,223.304092 438.958008,231.292862 
	C433.164398,231.882111 427.942535,232.542633 422.700104,232.909683 
	C417.533844,233.271378 412.187042,228.544678 412.058929,223.473648 
	C411.900055,217.186295 412.020874,210.891876 412.020874,204.342987 
	C414.793854,204.096039 417.301270,203.872757 420.929962,203.549606 
	C420.929962,206.793213 420.916168,209.972992 420.934570,213.152588 
	C420.947998,215.475220 420.518433,217.950592 421.187653,220.073776 
	C421.768616,221.917023 423.591095,224.690872 424.906525,224.714294 
	C427.944397,224.768387 430.193298,222.857407 430.049042,219.095398 
	C429.865540,214.309937 430.004578,209.512115 430.004578,203.280869 
	C433.415344,204.258469 436.181671,205.051376 438.953003,206.316177 
z"/>
<path fill="#DD5165" opacity="1.000000" stroke="none" 
	d="
M488.599731,206.179321 
	C489.762268,207.883835 490.655731,209.310669 491.312012,210.358749 
	C493.643219,208.181549 495.543579,205.337433 498.168457,204.262589 
	C500.683044,203.232895 503.949921,204.040298 508.248108,204.040298 
	C505.178009,207.991440 502.253967,211.476593 499.700958,215.215103 
	C498.965485,216.292084 498.652130,218.480087 499.255859,219.503586 
	C501.616058,223.504578 504.421082,227.243164 507.159393,231.222610 
	C497.864441,233.149902 496.185791,232.436539 492.329346,224.833511 
	C490.557220,227.223297 488.929901,229.417831 486.920837,232.127121 
	C484.060120,231.929031 480.618347,231.690704 475.774597,231.355301 
	C479.830994,226.104156 482.879089,222.158279 486.099915,217.988770 
	C482.895050,213.592300 479.678986,209.180466 476.462921,204.768631 
	C476.658966,204.291946 476.854980,203.815262 477.050995,203.338593 
	C480.810883,204.192932 484.570770,205.047287 488.599731,206.179321 
z"/>
<path fill="#DD5165" opacity="1.000000" stroke="none" 
	d="
M256.166962,225.450058 
	C248.632965,235.880692 236.933289,234.542007 229.987045,226.436142 
	C224.199951,219.682938 228.906891,206.003128 237.510300,204.027039 
	C246.906357,201.868912 253.470901,204.542511 256.558105,211.920288 
	C253.025650,213.904526 249.807755,217.374008 245.908615,211.854416 
	C245.184479,210.829361 240.997635,211.151489 239.285706,212.235977 
	C237.614426,213.294693 236.021469,216.280548 236.298294,218.136322 
	C236.615845,220.264938 238.744446,223.311752 240.598297,223.739243 
	C243.258591,224.352692 246.382126,222.957184 249.307907,222.419312 
	C249.366776,221.741806 249.425644,221.064285 249.484512,220.386780 
	C251.751175,221.960205 254.017853,223.533630 256.166962,225.450058 
z"/>
<path fill="#DD5165" opacity="1.000000" stroke="none" 
	d="
M356.234070,208.575867 
	C357.393097,210.786865 358.351440,212.664444 359.536560,214.986252 
	C361.331177,211.774078 362.358490,208.033569 364.810242,206.089874 
	C367.190887,204.202560 371.033295,204.159073 374.233765,203.305893 
	C374.589905,203.799789 374.946075,204.293701 375.302216,204.787598 
	C370.372589,214.203491 365.442963,223.619370 359.839722,234.321854 
	C354.453552,223.759781 349.627197,214.295517 344.341766,203.931015 
	C349.199646,204.858734 354.420532,201.285263 356.234070,208.575867 
z"/>
<path fill="#DF4F63" opacity="1.000000" stroke="none" 
	d="
M461.992249,219.077362 
	C461.581604,215.311783 463.403198,211.318161 458.541901,209.400589 
	C457.810883,209.112228 457.762360,205.549759 458.352600,203.829300 
	C459.171722,201.441696 460.893646,199.363861 462.709503,196.358154 
	C464.137482,196.358154 466.849945,196.358154 469.915833,196.358154 
	C469.915833,198.529205 469.915833,200.464645 469.915833,202.967804 
	C475.538177,202.088699 475.301117,205.523132 474.797058,209.464981 
	C473.389221,209.753250 471.876770,210.062958 470.405670,210.364197 
	C468.900269,222.532394 469.387573,224.238968 474.806519,225.621933 
	C474.806519,227.862869 474.806519,230.128189 474.806519,232.649719 
	C470.148376,233.228455 465.286438,234.116531 462.964081,229.153687 
	C461.676697,226.402618 462.256897,222.777603 461.992249,219.077362 
z"/>
<path fill="#DF4F63" opacity="1.000000" stroke="none" 
	d="
M305.029724,217.672485 
	C305.010071,220.100266 305.002777,222.095444 305.003723,224.090607 
	C305.007629,232.226776 305.008575,232.226776 296.377014,231.807266 
	C296.377014,222.791962 296.377014,213.750702 296.377014,204.444626 
	C302.100861,204.444626 307.840118,204.444626 313.632294,204.444626 
	C314.739807,208.581375 312.857025,210.926147 308.984680,212.677216 
	C307.323669,213.428314 306.338287,215.673523 305.029724,217.672485 
z"/>
<path fill="#DF4F63" opacity="1.000000" stroke="none" 
	d="
M445.162262,196.023666 
	C445.111206,195.584198 445.060150,195.144745 445.391479,194.363800 
	C446.837646,193.759964 447.901398,193.497620 448.965179,193.235291 
	C449.719177,193.181244 450.473145,193.127213 451.619568,193.420197 
	C452.250061,194.468292 452.488159,195.169357 452.751038,196.346344 
	C452.796265,206.277237 452.594757,215.740097 452.930634,225.183853 
	C453.098633,229.907089 451.463135,231.615280 446.767853,230.350891 
	C446.407227,223.575104 446.253204,217.155792 445.988312,210.741058 
	C445.785614,205.832260 445.442749,200.929245 445.162262,196.023666 
z"/>
<path fill="#ED8381" opacity="1.000000" stroke="none" 
	d="
M175.947479,165.487854 
	C177.870834,165.127823 179.542862,164.837616 181.134720,165.078049 
	C182.432190,165.274017 183.748825,165.954269 184.798737,166.757370 
	C185.068619,166.963806 184.562256,169.059677 184.068405,169.218658 
	C182.807480,169.624557 181.326614,169.600159 179.986267,169.398560 
	C179.326202,169.299286 178.782516,168.426331 177.946259,167.693130 
	C176.394318,169.555725 175.001251,171.227646 173.310318,173.257050 
	C170.997269,169.366577 172.040558,167.150848 175.947479,165.487854 
z"/>
<path fill="#ED8381" opacity="1.000000" stroke="none" 
	d="
M446.926758,230.709320 
	C451.463135,231.615280 453.098633,229.907089 452.930634,225.183853 
	C452.594757,215.740097 452.796265,206.277237 452.782440,196.010010 
	C452.741028,194.521606 452.693024,193.845474 452.645020,193.169342 
	C453.119720,193.779236 454.004517,194.386383 454.008606,194.999405 
	C454.089783,207.198517 454.069153,219.398315 454.069153,232.205994 
	C450.879822,231.984100 448.007019,231.784241 445.445984,231.162628 
	C446.147430,230.730362 446.537079,230.719849 446.926758,230.709320 
z"/>
<path fill="#DD5165" opacity="1.000000" stroke="none" 
	d="
M446.767853,230.350891 
	C446.537079,230.719849 446.147430,230.730362 445.467102,230.708344 
	C445.122101,219.432632 445.067810,208.189468 445.087891,196.484985 
	C445.442749,200.929245 445.785614,205.832260 445.988312,210.741058 
	C446.253204,217.155792 446.407227,223.575104 446.767853,230.350891 
z"/>
<path fill="#DD5165" opacity="1.000000" stroke="none" 
	d="
M404.281921,231.868927 
	C404.323761,222.909637 404.655518,214.009705 404.981964,204.653900 
	C404.976624,204.197998 405.345551,204.065216 405.571045,204.564178 
	C405.852325,213.743317 405.908112,222.423477 405.963898,231.103653 
	C405.499878,231.378540 405.035858,231.653427 404.281921,231.868927 
z"/>
<path fill="#ED8381" opacity="1.000000" stroke="none" 
	d="
M406.379211,230.925903 
	C405.908112,222.423477 405.852325,213.743317 405.762238,204.607452 
	C406.175659,204.636673 407.013580,205.122101 407.012939,205.606384 
	C407.001404,213.987076 406.886719,222.367599 406.379211,230.925903 
z"/>
<path fill="#DD5165" opacity="1.000000" stroke="none" 
	d="
M448.590820,193.168213 
	C447.901398,193.497620 446.837646,193.759964 445.437561,194.034149 
	C446.139679,193.731049 447.178070,193.416107 448.590820,193.168213 
z"/>
<path fill="#DD5165" opacity="1.000000" stroke="none" 
	d="
M452.475342,193.117874 
	C452.693024,193.845474 452.741028,194.521606 452.757629,195.534088 
	C452.488159,195.169357 452.250061,194.468292 451.994019,193.482178 
	C451.976013,193.197113 452.305664,193.066406 452.475342,193.117874 
z"/>
<path fill="#000000" opacity="1.000000" stroke="none" 
	d="
M272.746521,224.352936 
	C267.934418,220.502472 267.572113,217.656036 270.295013,213.236069 
	C271.982513,210.496811 273.972565,210.312805 276.647278,210.984543 
	C279.860596,211.791534 281.571869,213.917007 280.920868,217.004669 
	C280.404327,219.454788 279.136993,221.933716 277.567261,223.889587 
	C276.864746,224.764893 274.605469,224.390762 272.746521,224.352936 
z"/>
<path fill="#000000" opacity="1.000000" stroke="none" 
	d="
M385.038940,216.344757 
	C385.488434,211.976501 388.335358,210.401672 391.659119,210.459030 
	C394.711639,210.511719 398.486694,216.020432 397.982147,218.696533 
	C397.271851,222.463989 394.075653,224.387939 389.360901,224.030304 
	C384.399231,223.653992 385.029877,220.044159 385.038940,216.344757 
z"/>
</svg>